<mxfile host="app.diagrams.net" modified="2021-06-11T05:43:31.217Z" agent="5.0 (Windows NT 10.0; Win64; x64) AppleWebKit/537.36 (KHTML, like Gecko) Chrome/91.0.4472.77 Safari/537.36" etag="kvpm4QDTSyY2QqxwILEh" version="14.7.7" type="github" pages="2">
  <diagram name="TwoButtons" id="9f46799a-70d6-7492-0946-bef42562c5a5">
    <mxGraphModel dx="920" dy="605" grid="1" gridSize="10" guides="1" tooltips="1" connect="1" arrows="1" fold="1" page="1" pageScale="1" pageWidth="1100" pageHeight="850" background="none" math="0" shadow="0">
      <root>
        <mxCell id="0" />
        <mxCell id="1" parent="0" />
        <mxCell id="KLwD5VwdmR7PRyjQqvhB-4" style="edgeStyle=orthogonalEdgeStyle;rounded=0;orthogonalLoop=1;jettySize=auto;html=1;exitX=0.5;exitY=1;exitDx=0;exitDy=0;entryX=0.5;entryY=0;entryDx=0;entryDy=0;" parent="1" source="KLwD5VwdmR7PRyjQqvhB-1" target="KLwD5VwdmR7PRyjQqvhB-2" edge="1">
          <mxGeometry relative="1" as="geometry" />
        </mxCell>
        <mxCell id="KLwD5VwdmR7PRyjQqvhB-1" value="DoSchedules" style="rounded=1;whiteSpace=wrap;html=1;" parent="1" vertex="1">
          <mxGeometry x="100" y="40" width="120" height="60" as="geometry" />
        </mxCell>
        <mxCell id="KLwD5VwdmR7PRyjQqvhB-5" style="edgeStyle=orthogonalEdgeStyle;rounded=0;orthogonalLoop=1;jettySize=auto;html=1;exitX=0.5;exitY=1;exitDx=0;exitDy=0;entryX=0.5;entryY=0;entryDx=0;entryDy=0;" parent="1" source="KLwD5VwdmR7PRyjQqvhB-2" target="KLwD5VwdmR7PRyjQqvhB-3" edge="1">
          <mxGeometry relative="1" as="geometry" />
        </mxCell>
        <mxCell id="KLwD5VwdmR7PRyjQqvhB-7" style="edgeStyle=orthogonalEdgeStyle;rounded=0;orthogonalLoop=1;jettySize=auto;html=1;exitX=1;exitY=0.25;exitDx=0;exitDy=0;entryX=1;entryY=0.75;entryDx=0;entryDy=0;" parent="1" source="KLwD5VwdmR7PRyjQqvhB-2" target="KLwD5VwdmR7PRyjQqvhB-1" edge="1">
          <mxGeometry relative="1" as="geometry" />
        </mxCell>
        <mxCell id="KLwD5VwdmR7PRyjQqvhB-2" value="DoJobs" style="rounded=1;whiteSpace=wrap;html=1;" parent="1" vertex="1">
          <mxGeometry x="100" y="140" width="120" height="60" as="geometry" />
        </mxCell>
        <mxCell id="KLwD5VwdmR7PRyjQqvhB-6" style="edgeStyle=orthogonalEdgeStyle;rounded=0;orthogonalLoop=1;jettySize=auto;html=1;exitX=1;exitY=0.5;exitDx=0;exitDy=0;entryX=1;entryY=0.75;entryDx=0;entryDy=0;" parent="1" source="KLwD5VwdmR7PRyjQqvhB-3" target="KLwD5VwdmR7PRyjQqvhB-2" edge="1">
          <mxGeometry relative="1" as="geometry" />
        </mxCell>
        <mxCell id="KLwD5VwdmR7PRyjQqvhB-3" value="DoTasks" style="rounded=1;whiteSpace=wrap;html=1;" parent="1" vertex="1">
          <mxGeometry x="100" y="240" width="120" height="60" as="geometry" />
        </mxCell>
        <mxCell id="KLwD5VwdmR7PRyjQqvhB-8" value="For Ugv Mssion" style="rounded=1;whiteSpace=wrap;html=1;" parent="1" vertex="1">
          <mxGeometry x="440" y="40" width="120" height="60" as="geometry" />
        </mxCell>
        <mxCell id="KLwD5VwdmR7PRyjQqvhB-9" value="PLC 004 = 1 Start" style="rounded=1;whiteSpace=wrap;html=1;" parent="1" vertex="1">
          <mxGeometry x="440" y="120" width="120" height="60" as="geometry" />
        </mxCell>
        <mxCell id="KLwD5VwdmR7PRyjQqvhB-10" value="&lt;b&gt;Need to escape!&lt;/b&gt;" style="text;html=1;strokeColor=none;fillColor=none;align=center;verticalAlign=middle;whiteSpace=wrap;rounded=0;" parent="1" vertex="1">
          <mxGeometry x="240" y="250" width="110" height="20" as="geometry" />
        </mxCell>
        <mxCell id="KLwD5VwdmR7PRyjQqvhB-12" value="小車回充電站" style="ellipse;whiteSpace=wrap;html=1;aspect=fixed;" parent="1" vertex="1">
          <mxGeometry x="780" y="130" width="100" height="100" as="geometry" />
        </mxCell>
        <mxCell id="KLwD5VwdmR7PRyjQqvhB-14" value="" style="shape=flexArrow;endArrow=classic;html=1;entryX=0.5;entryY=0;entryDx=0;entryDy=0;" parent="1" target="KLwD5VwdmR7PRyjQqvhB-12" edge="1">
          <mxGeometry width="50" height="50" relative="1" as="geometry">
            <mxPoint x="830" y="60" as="sourcePoint" />
            <mxPoint x="1040" y="240" as="targetPoint" />
          </mxGeometry>
        </mxCell>
        <mxCell id="KLwD5VwdmR7PRyjQqvhB-15" value="&lt;font style=&quot;font-size: 16px&quot;&gt;User Clicks Button&lt;/font&gt;" style="text;html=1;strokeColor=none;fillColor=none;align=center;verticalAlign=middle;whiteSpace=wrap;rounded=0;" parent="1" vertex="1">
          <mxGeometry x="750" y="30" width="160" height="20" as="geometry" />
        </mxCell>
        <mxCell id="KLwD5VwdmR7PRyjQqvhB-16" value="" style="shape=flexArrow;endArrow=classic;html=1;exitX=0.5;exitY=1;exitDx=0;exitDy=0;" parent="1" source="KLwD5VwdmR7PRyjQqvhB-12" edge="1">
          <mxGeometry width="50" height="50" relative="1" as="geometry">
            <mxPoint x="829.5" y="235" as="sourcePoint" />
            <mxPoint x="830" y="300" as="targetPoint" />
            <Array as="points">
              <mxPoint x="830" y="290" />
            </Array>
          </mxGeometry>
        </mxCell>
        <mxCell id="KLwD5VwdmR7PRyjQqvhB-17" value="Front end should:&lt;br&gt;&lt;br&gt;1. Create a new Schedule with &quot;schedule_status&quot; == 7 &amp;amp;&amp;amp; &quot;schedule_command&quot; == 2&lt;br&gt;2. prompt up comfirmation box for user to decide ugv_init_pos&lt;br&gt;3. Only maps with &quot;dock_info&quot; == 1 could be selected.&lt;br&gt;4. After user confirmation, front end should update &quot;planned_start_time&quot; as 10 sec later from current time, and then change &quot;schedule_status&quot; = 1&amp;nbsp;" style="rounded=1;whiteSpace=wrap;html=1;" parent="1" vertex="1">
          <mxGeometry x="580" y="310" width="500" height="120" as="geometry" />
        </mxCell>
        <mxCell id="KLwD5VwdmR7PRyjQqvhB-19" value="Need a countdown function, should notify user." style="rounded=1;whiteSpace=wrap;html=1;" parent="1" vertex="1">
          <mxGeometry x="450" y="460" width="120" height="60" as="geometry" />
        </mxCell>
      </root>
    </mxGraphModel>
  </diagram>
  <diagram id="owZQCH_vDhyIAB7X52QG" name="RedoButton">
    <mxGraphModel dx="782" dy="1683" grid="1" gridSize="10" guides="1" tooltips="1" connect="1" arrows="1" fold="1" page="1" pageScale="1" pageWidth="827" pageHeight="1169" math="0" shadow="0">
      <root>
        <mxCell id="n0nwbGPEsCJ3wl-f-12y-0" />
        <mxCell id="n0nwbGPEsCJ3wl-f-12y-1" parent="n0nwbGPEsCJ3wl-f-12y-0" />
        <mxCell id="rHpX2mkYnnXNI7FvOPFv-5" style="edgeStyle=orthogonalEdgeStyle;rounded=0;orthogonalLoop=1;jettySize=auto;html=1;exitX=0.5;exitY=0;exitDx=0;exitDy=0;" edge="1" parent="n0nwbGPEsCJ3wl-f-12y-1" source="n0nwbGPEsCJ3wl-f-12y-2">
          <mxGeometry relative="1" as="geometry">
            <mxPoint x="120" y="-60" as="targetPoint" />
          </mxGeometry>
        </mxCell>
        <mxCell id="n0nwbGPEsCJ3wl-f-12y-2" value="重做" style="rounded=1;whiteSpace=wrap;html=1;" vertex="1" parent="n0nwbGPEsCJ3wl-f-12y-1">
          <mxGeometry x="60" y="30" width="90" height="40" as="geometry" />
        </mxCell>
        <mxCell id="n0nwbGPEsCJ3wl-f-12y-3" value="聯係管理員" style="rounded=1;whiteSpace=wrap;html=1;" vertex="1" parent="n0nwbGPEsCJ3wl-f-12y-1">
          <mxGeometry x="190" y="30" width="90" height="40" as="geometry" />
        </mxCell>
        <mxCell id="n0nwbGPEsCJ3wl-f-12y-16" value="" style="group" vertex="1" connectable="0" parent="n0nwbGPEsCJ3wl-f-12y-1">
          <mxGeometry x="60" y="100" width="330" height="150" as="geometry" />
        </mxCell>
        <mxCell id="n0nwbGPEsCJ3wl-f-12y-5" value="" style="rounded=1;whiteSpace=wrap;html=1;" vertex="1" parent="n0nwbGPEsCJ3wl-f-12y-16">
          <mxGeometry width="330" height="150" as="geometry" />
        </mxCell>
        <mxCell id="n0nwbGPEsCJ3wl-f-12y-6" value="請選擇" style="rounded=1;whiteSpace=wrap;html=1;" vertex="1" parent="n0nwbGPEsCJ3wl-f-12y-16">
          <mxGeometry x="24.264705882352942" y="20" width="247.5" height="30" as="geometry" />
        </mxCell>
        <mxCell id="n0nwbGPEsCJ3wl-f-12y-10" value="重做錯誤部分" style="rounded=1;whiteSpace=wrap;html=1;" vertex="1" parent="n0nwbGPEsCJ3wl-f-12y-16">
          <mxGeometry x="24.264705882352942" y="80" width="116.47058823529412" height="50" as="geometry" />
        </mxCell>
        <mxCell id="n0nwbGPEsCJ3wl-f-12y-11" value="重做整個任務" style="rounded=1;whiteSpace=wrap;html=1;" vertex="1" parent="n0nwbGPEsCJ3wl-f-12y-16">
          <mxGeometry x="155.2941176470588" y="80" width="116.47058823529412" height="50" as="geometry" />
        </mxCell>
        <mxCell id="n0nwbGPEsCJ3wl-f-12y-14" value="" style="verticalLabelPosition=bottom;verticalAlign=top;html=1;shape=mxgraph.basic.x" vertex="1" parent="n0nwbGPEsCJ3wl-f-12y-16">
          <mxGeometry x="291.1764705882353" y="10" width="19.41176470588235" height="20" as="geometry" />
        </mxCell>
        <mxCell id="rHpX2mkYnnXNI7FvOPFv-0" style="edgeStyle=orthogonalEdgeStyle;rounded=0;orthogonalLoop=1;jettySize=auto;html=1;exitX=0.5;exitY=1;exitDx=0;exitDy=0;" edge="1" parent="n0nwbGPEsCJ3wl-f-12y-1" source="n0nwbGPEsCJ3wl-f-12y-10">
          <mxGeometry relative="1" as="geometry">
            <mxPoint x="100" y="300" as="targetPoint" />
          </mxGeometry>
        </mxCell>
        <mxCell id="rHpX2mkYnnXNI7FvOPFv-1" value="Create&amp;nbsp; a new schedule with this job&amp;nbsp;&lt;br&gt;set schedule_command as 4" style="text;html=1;strokeColor=none;fillColor=none;align=center;verticalAlign=middle;whiteSpace=wrap;rounded=0;" vertex="1" parent="n0nwbGPEsCJ3wl-f-12y-1">
          <mxGeometry y="310" width="210" height="40" as="geometry" />
        </mxCell>
        <mxCell id="rHpX2mkYnnXNI7FvOPFv-3" style="edgeStyle=orthogonalEdgeStyle;rounded=0;orthogonalLoop=1;jettySize=auto;html=1;exitX=0.5;exitY=1;exitDx=0;exitDy=0;" edge="1" parent="n0nwbGPEsCJ3wl-f-12y-1" source="n0nwbGPEsCJ3wl-f-12y-11">
          <mxGeometry relative="1" as="geometry">
            <mxPoint x="340" y="310" as="targetPoint" />
          </mxGeometry>
        </mxCell>
        <mxCell id="rHpX2mkYnnXNI7FvOPFv-4" value="Create&amp;nbsp; a new schedule with this job&amp;nbsp;&lt;br&gt;set schedule_command as 1" style="text;html=1;strokeColor=none;fillColor=none;align=center;verticalAlign=middle;whiteSpace=wrap;rounded=0;" vertex="1" parent="n0nwbGPEsCJ3wl-f-12y-1">
          <mxGeometry x="270" y="310" width="240" height="40" as="geometry" />
        </mxCell>
        <mxCell id="rHpX2mkYnnXNI7FvOPFv-6" value="Can only be activated when current job status is error, otherwise, front end should disable the button," style="text;html=1;strokeColor=none;fillColor=none;align=center;verticalAlign=middle;whiteSpace=wrap;rounded=0;" vertex="1" parent="n0nwbGPEsCJ3wl-f-12y-1">
          <mxGeometry x="10" y="-100" width="210" height="40" as="geometry" />
        </mxCell>
      </root>
    </mxGraphModel>
  </diagram>
</mxfile>
